<svg width="27" height="27" viewBox="0 0 27 27" fill="none" xmlns="http://www.w3.org/2000/svg">
<path d="M15.605 0.777969C15.0174 0.278432 14.2713 0.00415039 13.5 0.00415039C12.7287 0.00415039 11.9826 0.278432 11.395 0.777969L1.645 9.06497C1.28612 9.37005 0.997849 9.74949 0.800144 10.177C0.602438 10.6045 0.500026 11.0699 0.5 11.541V23.756C0.500265 24.6164 0.842265 25.4415 1.45079 26.0499C2.05932 26.6582 2.88455 27 3.745 27H23.255C24.1155 27 24.9407 26.6582 25.5492 26.0499C26.1577 25.4415 26.4997 24.6164 26.5 23.756V11.54C26.5 11.0689 26.3976 10.6035 26.1999 10.176C26.0022 9.74849 25.7139 9.36905 25.355 9.06397L15.605 0.777969ZM9.5 14.5C9.5 14.8978 9.34196 15.2793 9.06066 15.5606C8.77936 15.8419 8.39782 16 8 16C7.60218 16 7.22064 15.8419 6.93934 15.5606C6.65804 15.2793 6.5 14.8978 6.5 14.5C6.5 14.1021 6.65804 13.7206 6.93934 13.4393C7.22064 13.158 7.60218 13 8 13C8.39782 13 8.77936 13.158 9.06066 13.4393C9.34196 13.7206 9.5 14.1021 9.5 14.5ZM8 21C7.60218 21 7.22064 20.8419 6.93934 20.5606C6.65804 20.2793 6.5 19.8978 6.5 19.5C6.5 19.1021 6.65804 18.7206 6.93934 18.4393C7.22064 18.158 7.60218 18 8 18C8.39782 18 8.77936 18.158 9.06066 18.4393C9.34196 18.7206 9.5 19.1021 9.5 19.5C9.5 19.8978 9.34196 20.2793 9.06066 20.5606C8.77936 20.8419 8.39782 21 8 21ZM13.5 21C13.1022 21 12.7206 20.8419 12.4393 20.5606C12.158 20.2793 12 19.8978 12 19.5C12 19.1021 12.158 18.7206 12.4393 18.4393C12.7206 18.158 13.1022 18 13.5 18C13.8978 18 14.2794 18.158 14.5607 18.4393C14.842 18.7206 15 19.1021 15 19.5C15 19.8978 14.842 20.2793 14.5607 20.5606C14.2794 20.8419 13.8978 21 13.5 21ZM13.5 16C13.1022 16 12.7206 15.8419 12.4393 15.5606C12.158 15.2793 12 14.8978 12 14.5C12 14.1021 12.158 13.7206 12.4393 13.4393C12.7206 13.158 13.1022 13 13.5 13C13.8978 13 14.2794 13.158 14.5607 13.4393C14.842 13.7206 15 14.1021 15 14.5C15 14.8978 14.842 15.2793 14.5607 15.5606C14.2794 15.8419 13.8978 16 13.5 16ZM19 16C18.6022 16 18.2206 15.8419 17.9393 15.5606C17.658 15.2793 17.5 14.8978 17.5 14.5C17.5 14.1021 17.658 13.7206 17.9393 13.4393C18.2206 13.158 18.6022 13 19 13C19.3978 13 19.7794 13.158 20.0607 13.4393C20.342 13.7206 20.5 14.1021 20.5 14.5C20.5 14.8978 20.342 15.2793 20.0607 15.5606C19.7794 15.8419 19.3978 16 19 16ZM19 21C18.6022 21 18.2206 20.8419 17.9393 20.5606C17.658 20.2793 17.5 19.8978 17.5 19.5C17.5 19.1021 17.658 18.7206 17.9393 18.4393C18.2206 18.158 18.6022 18 19 18C19.3978 18 19.7794 18.158 20.0607 18.4393C20.342 18.7206 20.5 19.1021 20.5 19.5C20.5 19.8978 20.342 20.2793 20.0607 20.5606C19.7794 20.8419 19.3978 21 19 21Z" fill="#CE4044"/>
</svg>
