<svg width="50" height="50" viewBox="0 0 50 50" fill="none" xmlns="http://www.w3.org/2000/svg">
<rect width="50" height="50" rx="16" fill="#FFC756"/>
<path d="M17.175 31.225C16.475 30.325 15.9377 29.346 15.563 28.288C15.1883 27.23 15.0007 26.134 15 25C14.9993 23.866 15.187 22.7703 15.563 21.713C15.939 20.6557 16.4763 19.6763 17.175 18.775C18.1417 19.525 18.9 20.446 19.45 21.538C20 22.63 20.275 23.784 20.275 25C20.275 26.216 20 27.3703 19.45 28.463C18.9 29.5557 18.1417 30.4763 17.175 31.225ZM25 35C23.8 35 22.6543 34.8 21.563 34.4C20.4717 34 19.4757 33.4167 18.575 32.65C19.725 31.7 20.625 30.5627 21.275 29.238C21.925 27.9133 22.25 26.5007 22.25 25C22.25 23.4993 21.925 22.087 21.275 20.763C20.625 19.439 19.725 18.3013 18.575 17.35C19.475 16.5833 20.471 16 21.563 15.6C22.655 15.2 23.8007 15 25 15C26.1993 15 27.3453 15.2 28.438 15.6C29.5307 16 30.5263 16.5833 31.425 17.35C30.275 18.3 29.375 19.4377 28.725 20.763C28.075 22.0883 27.75 23.5007 27.75 25C27.75 26.4993 28.075 27.912 28.725 29.238C29.375 30.564 30.275 31.7013 31.425 32.65C30.525 33.4167 29.529 34 28.437 34.4C27.345 34.8 26.1993 35 25 35ZM32.825 31.225C31.8583 30.475 31.1 29.5543 30.55 28.463C30 27.3717 29.725 26.2173 29.725 25C29.725 23.7827 30 22.6283 30.55 21.537C31.1 20.4457 31.8583 19.525 32.825 18.775C33.525 19.675 34.0627 20.6543 34.438 21.713C34.8133 22.7717 35.0007 23.8673 35 25C34.9993 26.1327 34.812 27.2287 34.438 28.288C34.064 29.3473 33.5263 30.3263 32.825 31.225Z" fill="white"/>
</svg>
