<svg width="158" height="158" viewBox="0 0 158 158" fill="none" xmlns="http://www.w3.org/2000/svg">
<rect width="158" height="158" fill="url(#paint0_linear_412_70130)"/>
<path fill-rule="evenodd" clip-rule="evenodd" d="M65.9132 61.1308L55.9629 134H85.3615L95.3118 61.1308C95.3118 61.1308 110.689 61.1308 122.901 54.1688C135.113 47.2068 138.9 26.061 137.827 24C137.827 24 124.248 33.3783 114.308 34.211C92.1457 36.0675 52.1609 36.0675 50.0832 36.0675C48.0055 36.0675 37.6029 36.0675 28.3734 42.5654C22.7271 46.5406 16.2743 54.1688 18.4231 63.9156C20.3595 72.6982 26.6394 76.6824 35.3413 77.8397C41.7174 78.6876 51.44 74.1266 51.44 74.1266C51.44 74.1266 42.1902 69.6426 43.7512 65.308C44.9289 62.0377 51.44 61.1308 51.44 61.1308H65.9132Z" fill="#C6275A"/>
<defs>
<linearGradient id="paint0_linear_412_70130" x1="153" y1="3.99999" x2="-3.66616e-06" y2="153.5" gradientUnits="userSpaceOnUse">
<stop stop-color="#C6275A"/>
<stop offset="1" stop-color="#FF6A88"/>
</linearGradient>
</defs>
</svg>
