<svg width="151" height="26" viewBox="0 0 151 26" fill="none" xmlns="http://www.w3.org/2000/svg">
<path d="M0.405 15.897H29.835V21.027H19.305V25.428H10.935V21.027H0.405V15.897ZM1.431 9.66V5.745H19.953C19.98 5.61 20.007 5.502 20.007 5.394C20.007 4.935 19.629 4.827 18.117 4.827C14.364 4.827 6.102 4.935 2.241 5.043L1.971 1.074C6.075 0.803999 12.312 0.642 16.767 0.642C25.704 0.642 28.269 1.317 28.269 3.666C28.269 4.26 28.08 4.989 27.756 5.745H28.269V9.66H10.395C10.368 9.741 10.368 9.795 10.368 9.876C10.368 10.524 10.692 10.632 12.582 10.632C17.739 10.632 25.029 10.47 28.539 10.254L28.809 14.52C24.624 14.817 16.902 15.087 12.933 15.087C3.996 15.087 2.106 14.547 2.106 11.982C2.106 11.172 2.241 10.389 2.484 9.66H1.431ZM51.5732 0.371998H59.2682V25.428H51.5732V0.371998ZM31.4582 18.894C37.7222 18.192 40.5842 17.301 41.8262 15.168L31.7282 15.573L31.4582 10.173L42.5822 9.714C42.3392 7.959 41.4752 7.203 39.8822 7.203C38.3702 7.203 36.6152 7.365 32.5382 7.851L31.7282 1.911C35.8322 1.101 39.4232 0.695999 42.2852 0.695999C47.9822 0.695999 50.3312 3.369 50.3312 9.795C50.3312 20.217 44.7962 24.834 32.2682 24.834L31.4582 18.894ZM83.7873 0.371998H89.7813V25.428H83.7873V0.371998ZM61.2963 17.355V0.830999H67.2363V6.744H70.0443C69.9633 4.935 69.7743 3.072 69.5313 1.101L75.2013 0.830999C75.6063 3.045 75.8223 5.826 75.9033 8.715H77.0103V0.371998H82.8153V25.293H77.0103V14.925H75.7683C75.6873 16.275 75.5523 17.598 75.3903 18.759H75.9033V24.429H67.9383C63.1053 24.429 61.2963 22.512 61.2963 17.355ZM67.2363 16.275C67.2363 18.435 67.4793 18.759 69.0183 18.759H69.6393C69.9093 16.437 70.0713 14.277 70.1253 12.144H67.2363V16.275ZM112.059 0.371998H119.754V25.428H112.059V0.371998ZM91.4045 13.089H98.6945C98.7485 16.329 99.5855 18.273 101.367 18.273C103.203 18.273 104.067 16.194 104.067 12.684C104.067 9.039 103.203 6.96 101.367 6.96C99.5855 6.96 98.7485 9.039 98.6945 12.819L91.4045 12.279C91.5125 4.692 94.8605 0.695999 101.367 0.695999C108.009 0.695999 111.357 4.827 111.357 12.684C111.357 20.541 107.982 24.699 101.367 24.699C94.8605 24.699 91.5125 20.703 91.4045 13.089ZM121.243 18.678H150.943V24.753H121.243V18.678ZM122.539 17.193C122.539 6.447 123.322 3.612 127.318 1.182H135.877C134.986 2.127 134.23 2.991 133.636 3.855C136.12 3.342 138.388 3.099 140.548 3.099C146.893 3.099 149.647 5.259 149.647 10.254V17.193L141.277 17.463V12.684C141.277 10.659 140.386 9.876 138.064 9.876C135.823 9.876 133.204 10.173 131.206 10.659C130.99 12.495 130.909 14.682 130.909 17.463L122.539 17.193Z" fill="white"/>
</svg>
