<svg width="33" height="32" viewBox="0 0 33 32" fill="none" xmlns="http://www.w3.org/2000/svg">
<path d="M6.8 28C6.1675 28 5.62623 27.775 5.1762 27.325C4.72617 26.875 4.50077 26.3333 4.5 25.7001L4.5 6.30101C4.5 5.66854 4.7254 5.1273 5.1762 4.67729C5.627 4.22728 6.16827 4.00189 6.8 4.00112L25.7 4C26.3325 4 26.8742 4.22539 27.325 4.67617C27.7758 5.12695 28.0008 5.66819 28 6.29989L28 25.699C28 26.3315 27.775 26.8731 27.3249 27.3239C26.8749 27.7746 26.3333 27.9997 25.7 27.9989L20.0681 27.9999C19.6893 28 19.343 27.786 19.1735 27.4471L18.5764 26.2529C18.407 25.9141 18.0607 25.7001 17.682 25.7001H14.318C13.9393 25.7001 13.593 25.9141 13.4236 26.2529L12.8264 27.4472C12.657 27.786 12.3108 28 11.932 28H6.8ZM11.4 18.3179C11.4 18.6672 11.6832 18.9504 12.0325 18.9504H19.9675C20.3168 18.9504 20.6 18.6672 20.6 18.3179V18.3179C20.6 17.3213 20.1208 16.6026 19.1625 16.1618C18.2042 15.721 17.15 15.5006 16 15.5006C14.85 15.5006 13.7958 15.721 12.8375 16.1618C11.8792 16.6026 11.4 17.3213 11.4 18.3179V18.3179ZM16 14.3506C16.6325 14.3506 17.1742 14.1256 17.625 13.6756C18.0758 13.2256 18.3008 12.684 18.3 12.0507C18.2992 11.4175 18.0742 10.8763 17.625 10.427C17.1757 9.97777 16.634 9.75238 16 9.75085C15.366 9.74931 14.8247 9.9747 14.3762 10.427C13.9277 10.8793 13.7023 11.4206 13.7 12.0507C13.6977 12.6809 13.9231 13.2225 14.3762 13.6756C14.8293 14.1287 15.3706 14.3537 16 14.3506Z" fill="#ED774F"/>
</svg>
