<svg width="158" height="158" viewBox="0 0 158 158" fill="none" xmlns="http://www.w3.org/2000/svg">
<rect width="158" height="158" fill="url(#paint0_linear_412_70175)"/>
<g opacity="0.3">
<path d="M139 26L87.2873 30.24L81.3204 41.5467L50.1602 43.6667L36.9006 70.52H44.1934L19 123.52L53.4751 121.4L62.0939 101.613L72.7017 132L105.188 129.88L91.2652 83.9467L139 26Z" fill="#5A0110"/>
<mask id="path-2-outside-1_412_70175" maskUnits="userSpaceOnUse" x="25.6094" y="31.4766" width="103" height="95" fill="black">
<rect fill="white" x="25.6094" y="31.4766" width="103" height="95"/>
<path fill-rule="evenodd" clip-rule="evenodd" d="M91.9301 36.5966L123.753 34.4766L83.9743 81.8232L95.908 122.103L78.0074 124.223L64.0848 83.2366L91.2671 50.7299H83.9743L91.9301 36.5966ZM53.4768 50.0266L78.0072 48.6133L48.1729 114.333L29.6094 115.747L53.4768 64.1599H46.184L53.4768 50.0266Z"/>
</mask>
<path fill-rule="evenodd" clip-rule="evenodd" d="M91.9301 36.5966L123.753 34.4766L83.9743 81.8232L95.908 122.103L78.0074 124.223L64.0848 83.2366L91.2671 50.7299H83.9743L91.9301 36.5966ZM53.4768 50.0266L78.0072 48.6133L48.1729 114.333L29.6094 115.747L53.4768 64.1599H46.184L53.4768 50.0266Z" fill="#E9A7A7"/>
<path d="M123.753 34.4766L125.285 35.7631L128.304 32.169L123.62 32.481L123.753 34.4766ZM91.9301 36.5966L91.7972 34.601L90.7179 34.6729L90.1872 35.6155L91.9301 36.5966ZM83.9743 81.8232L82.443 80.5367L81.7512 81.3602L82.0567 82.3914L83.9743 81.8232ZM95.908 122.103L96.1432 124.089L98.4997 123.81L97.8256 121.535L95.908 122.103ZM78.0074 124.223L76.1137 124.867L76.6346 126.4L78.2427 126.209L78.0074 124.223ZM64.0848 83.2366L62.5505 81.9536L61.8296 82.8157L62.1911 83.8798L64.0848 83.2366ZM91.2671 50.7299L92.8014 52.0129L95.5466 48.7299H91.2671V50.7299ZM83.9743 50.7299L82.2314 49.7488L80.5534 52.7299H83.9743V50.7299ZM78.0072 48.6133L79.8283 49.44L81.1964 46.4262L77.8921 46.6166L78.0072 48.6133ZM53.4768 50.0266L53.3617 48.0299L52.2226 48.0956L51.6994 49.1095L53.4768 50.0266ZM48.1729 114.333L48.3247 116.328L49.5048 116.238L49.994 115.16L48.1729 114.333ZM29.6094 115.747L27.7942 114.907L26.3633 118L29.7612 117.741L29.6094 115.747ZM53.4768 64.1599L55.2919 64.9997L56.6058 62.1599H53.4768V64.1599ZM46.184 64.1599L44.4066 63.2428L42.9014 66.1599H46.184V64.1599ZM123.62 32.481L91.7972 34.601L92.063 38.5921L123.886 36.4721L123.62 32.481ZM85.5056 83.1098L125.285 35.7631L122.222 33.19L82.443 80.5367L85.5056 83.1098ZM97.8256 121.535L85.8919 81.2551L82.0567 82.3914L93.9904 122.671L97.8256 121.535ZM78.2427 126.209L96.1432 124.089L95.6728 120.117L77.7722 122.237L78.2427 126.209ZM62.1911 83.8798L76.1137 124.867L79.9012 123.58L65.9785 82.5933L62.1911 83.8798ZM89.7328 49.4469L62.5505 81.9536L65.6191 84.5195L92.8014 52.0129L89.7328 49.4469ZM83.9743 52.7299H91.2671V48.7299H83.9743V52.7299ZM90.1872 35.6155L82.2314 49.7488L85.7171 51.711L93.6729 37.5776L90.1872 35.6155ZM77.8921 46.6166L53.3617 48.0299L53.5918 52.0233L78.1222 50.61L77.8921 46.6166ZM49.994 115.16L79.8283 49.44L76.186 47.7866L46.3518 113.507L49.994 115.16ZM29.7612 117.741L48.3247 116.328L48.0211 112.339L29.4575 113.752L29.7612 117.741ZM51.6616 63.3201L27.7942 114.907L31.4245 116.586L55.2919 64.9997L51.6616 63.3201ZM46.184 66.1599H53.4768V62.1599H46.184V66.1599ZM51.6994 49.1095L44.4066 63.2428L47.9613 65.0771L55.2541 50.9437L51.6994 49.1095Z" fill="#E70587" mask="url(#path-2-outside-1_412_70175)"/>
</g>
<defs>
<linearGradient id="paint0_linear_412_70175" x1="153" y1="3.99999" x2="-3.66616e-06" y2="153.5" gradientUnits="userSpaceOnUse">
<stop stop-color="#9A4154"/>
<stop offset="1" stop-color="#B93954"/>
</linearGradient>
</defs>
</svg>
