<svg width="158" height="158" viewBox="0 0 158 158" fill="none" xmlns="http://www.w3.org/2000/svg">
<rect width="158" height="158" fill="url(#paint0_linear_412_70168)"/>
<path d="M50.0545 45.3587C38.7927 49.0743 33.9687 52.6721 26.7401 60.453C30.6547 42.2161 34.5116 28.0011 54.8654 28.0002C75.2192 27.9994 107.415 28.0009 118.147 28.0002C128.879 27.9996 133.69 34.0382 131.47 45.3587C129.249 56.6792 118.147 105.736 118.147 105.736C114.314 120.677 109.636 128 96.6832 128H43.0232C32.6612 128 30.7887 122.267 26 114.415C32.604 115.433 36.3374 115.662 43.0232 115.17C43.0232 115.17 48.5742 90.264 51.9048 76.6794C55.2355 63.0947 65.8838 61.2245 78.1797 58.5662L67.0777 115.17H78.1797C86.632 113.366 89.3922 109.972 92.6124 103.849L103.671 50.8823C104.285 47.9456 102.199 45.1415 99.206 44.9303C87.0733 44.0739 58.8126 42.4691 50.0545 45.3587Z" stroke="#B9BD9B" stroke-opacity="0.3" stroke-width="5"/>
<defs>
<linearGradient id="paint0_linear_412_70168" x1="153" y1="3.99999" x2="-3.66616e-06" y2="153.5" gradientUnits="userSpaceOnUse">
<stop stop-color="#324977"/>
<stop offset="1" stop-color="#767961"/>
</linearGradient>
</defs>
</svg>
