<svg width="163" height="28" viewBox="0 0 163 28" fill="none" xmlns="http://www.w3.org/2000/svg">
<path d="M0.435 17.519H32.045V23.029H20.735V27.756H11.745V23.029H0.435V17.519ZM1.537 10.82V6.615H21.431C21.46 6.47 21.489 6.354 21.489 6.238C21.489 5.745 21.083 5.629 19.459 5.629C15.428 5.629 6.554 5.745 2.407 5.861L2.117 1.598C6.525 1.308 13.224 1.134 18.009 1.134C27.608 1.134 30.363 1.859 30.363 4.382C30.363 5.02 30.16 5.803 29.812 6.615H30.363V10.82H11.165C11.136 10.907 11.136 10.965 11.136 11.052C11.136 11.748 11.484 11.864 13.514 11.864C19.053 11.864 26.883 11.69 30.653 11.458L30.943 16.04C26.448 16.359 18.154 16.649 13.891 16.649C4.292 16.649 2.262 16.069 2.262 13.314C2.262 12.444 2.407 11.603 2.668 10.82H1.537ZM55.3934 0.843998H63.6584V27.756H55.3934V0.843998ZM33.7884 20.738C40.5164 19.984 43.5904 19.027 44.9244 16.736L34.0784 17.171L33.7884 11.371L45.7364 10.878C45.4754 8.993 44.5474 8.181 42.8364 8.181C41.2124 8.181 39.3274 8.355 34.9484 8.877L34.0784 2.497C38.4864 1.627 42.3434 1.192 45.4174 1.192C51.5364 1.192 54.0594 4.063 54.0594 10.965C54.0594 22.159 48.1144 27.118 34.6584 27.118L33.7884 20.738ZM89.9938 0.843998H96.4318V27.756H89.9938V0.843998ZM65.8368 19.085V1.337H72.2168V7.688H75.2328C75.1458 5.745 74.9428 3.744 74.6818 1.627L80.7718 1.337C81.2068 3.715 81.4388 6.702 81.5258 9.805H82.7148V0.843998H88.9498V27.611H82.7148V16.475H81.3808C81.2938 17.925 81.1488 19.346 80.9748 20.593H81.5258V26.683H72.9708C67.7798 26.683 65.8368 24.624 65.8368 19.085ZM72.2168 17.925C72.2168 20.245 72.4778 20.593 74.1308 20.593H74.7978C75.0878 18.099 75.2618 15.779 75.3198 13.488H72.2168V17.925ZM120.36 0.843998H128.625V27.756H120.36V0.843998ZM98.1752 14.503H106.005C106.063 17.983 106.962 20.071 108.876 20.071C110.848 20.071 111.776 17.838 111.776 14.068C111.776 10.153 110.848 7.92 108.876 7.92C106.962 7.92 106.063 10.153 106.005 14.213L98.1752 13.633C98.2912 5.484 101.887 1.192 108.876 1.192C116.01 1.192 119.606 5.629 119.606 14.068C119.606 22.507 115.981 26.973 108.876 26.973C101.887 26.973 98.2912 22.681 98.1752 14.503ZM130.224 20.506H162.124V27.031H130.224V20.506ZM131.616 18.911C131.616 7.369 132.457 4.324 136.749 1.714H145.942C144.985 2.729 144.173 3.657 143.535 4.585C146.203 4.034 148.639 3.773 150.959 3.773C157.774 3.773 160.732 6.093 160.732 11.458V18.911L151.742 19.201V14.068C151.742 11.893 150.785 11.052 148.291 11.052C145.884 11.052 143.071 11.371 140.925 11.893C140.693 13.865 140.606 16.214 140.606 19.201L131.616 18.911Z" fill="url(#paint0_linear_1696_136033)"/>
<defs>
<linearGradient id="paint0_linear_1696_136033" x1="0" y1="11" x2="163" y2="11" gradientUnits="userSpaceOnUse">
<stop stop-color="#FB9048"/>
<stop offset="1" stop-color="#FFC756"/>
</linearGradient>
</defs>
</svg>
