<?xml version="1.0" encoding="UTF-8"?>
<svg id="_레이어_1" data-name="레이어_1" xmlns="http://www.w3.org/2000/svg" xmlns:xlink="http://www.w3.org/1999/xlink" viewBox="0 0 1500 400">
  <defs>
    <style>
      .cls-1 {
        fill: url(#_무제_그라디언트_11);
      }
    </style>
    <linearGradient id="_무제_그라디언트_11" data-name="무제 그라디언트 11" x1="98.31" y1="200" x2="1398.31" y2="200" gradientUnits="userSpaceOnUse">
      <stop offset="0" stop-color="#f18c49"/>
      <stop offset="1" stop-color="#f6c157"/>
    </linearGradient>
  </defs>
  <path class="cls-1" d="M416.73,232.43v55.51h-113.93v47.62h-90.56v-47.62h-113.93v-55.51h318.42ZM109.41,122.59h200.4c.29-1.46.58-2.63.58-3.8,0-4.97-4.09-6.14-20.45-6.14-40.61,0-130,1.17-171.77,2.34l-2.92-42.94c44.4-2.92,111.89-4.67,160.09-4.67,96.7,0,124.45,7.3,124.45,32.72,0,6.43-2.04,14.31-5.55,22.49h5.55v42.36h-193.39c-.29.88-.29,1.46-.29,2.34,0,7.01,3.51,8.18,23.95,8.18,55.8,0,134.67-1.75,172.65-4.09l2.92,46.16c-45.28,3.21-128.83,6.13-171.77,6.13-96.7,0-117.15-5.84-117.15-33.59,0-8.76,1.46-17.24,4.09-25.12h-11.39v-42.36ZM546.44,224.54l-109.26,4.38-2.92-58.43,120.36-4.97c-2.63-18.99-11.98-27.17-29.21-27.17s-35.35,1.75-79.46,7.01l-8.76-64.27c44.4-8.76,83.26-13.15,114.22-13.15,61.64,0,87.06,28.92,87.06,98.45,0,112.76-59.89,162.72-195.44,162.72l-8.76-64.27c67.77-7.6,98.74-17.24,112.18-40.31ZM735.16,64.45v271.1h-83.26V64.45h83.26ZM752.69,261.06h318.42v67.19h-318.42v-67.19ZM967.41,228.34l-199.23,5.26-2.92-61.35,206.83-5.26c-.29-20.74-8.47-26.29-38.56-26.29-32.43,0-78.58,2.92-160.09,9.93l-6.72-65.73c63.98-9.64,118.9-14.61,165.93-14.61,95.23,0,124.45,19.57,124.45,82.38,0,26.29-3.51,64.27-11.39,102.54l-81.5-5.84c1.17-7.3,2.34-14.31,3.21-21.03ZM1281.45,263.97v-20.45h102.83v-62.8h-6.43c11.39-37.39,7.89-85.6-7.6-110.43l-76.25,2.92c1.46,7.3,2.92,14.31,3.8,20.74h-119.19v-23.66h-84.72v98.45c0,52,29.21,74.78,96.4,74.78h6.43v20.45h-116.85v64.27h318.43v-64.27h-116.85ZM1178.62,152.39h121.53c-.88,9.35-2.63,18.4-4.97,28.34h-70.11c-37.39,0-45.87-4.97-46.45-28.34Z"/>
</svg>