<svg width="158" height="158" viewBox="0 0 158 158" fill="none" xmlns="http://www.w3.org/2000/svg">
<rect width="158" height="158" fill="url(#paint0_linear_412_70158)"/>
<path d="M118.374 103.751C114.493 110.82 110.854 113.875 101.551 118C83.6075 111.613 75.7526 94.3774 67.3458 87.0459C46.5657 68.924 37.3907 65.3605 18 62.9697C18 62.9697 31.9468 60.6353 40.9907 60.5135C51.3398 60.3742 67.3458 62.9697 67.3458 62.9697C67.3458 62.9697 55.2297 54.713 46.5981 50.6867C37.0497 46.2326 20.8037 41.842 20.8037 41.842C20.8037 41.842 39.7099 36.5089 54.4486 38.4094C70.2761 40.4502 84.5543 44.5702 97.6262 52.6516C106.357 58.0494 111.001 61.9238 116.692 69.849C122.52 77.9662 126.224 92.9416 126.224 92.9416L138 99.329C130.667 102.443 126.349 103.335 118.374 103.751Z" fill="#ACACAC"/>
<path d="M111.766 108.132V98.2933C111.766 98.2933 118.11 100.609 122.401 100.753C126.387 100.887 132.477 99.2771 132.477 99.2771C132.477 99.2771 117.758 95.9985 110.086 89.9305C98.8911 81.0759 93.7861 74.9231 80.4189 70.2535C69.0976 66.2986 49.6318 65.8262 49.6318 65.8262C49.6318 65.8262 60.9485 72.9349 66.9845 78.6162C75.053 86.2105 83.7775 100.753 83.7775 100.753C91.5307 109.05 101.69 115.019 101.69 115.019L106.728 107.148L111.766 108.132Z" fill="#CB2028"/>
<path d="M62.3916 43.2557C50.4012 41.1558 30.5527 42.2699 30.5527 42.2699C30.5527 42.2699 49.4161 46.28 59.5988 52.1436C67.2336 56.54 76.9147 65.9668 76.9147 65.9668C76.9147 65.9668 91.4017 70.1267 99.8163 74.3594C108.348 78.6508 119.925 87.6889 119.925 87.6889C119.925 87.6889 113.271 71.8914 105.402 63.992C98.8281 57.3924 94.0676 54.3131 85.2933 50.1688C76.958 46.2319 71.8649 44.9147 62.3916 43.2557Z" fill="#0E0E0E"/>
<defs>
<linearGradient id="paint0_linear_412_70158" x1="153" y1="3.99999" x2="-3.66616e-06" y2="153.5" gradientUnits="userSpaceOnUse">
<stop stop-color="#BA1D24"/>
<stop offset="1" stop-color="#EF6A70"/>
</linearGradient>
</defs>
</svg>
