<svg width="33" height="32" viewBox="0 0 33 32" fill="none" xmlns="http://www.w3.org/2000/svg">
<path d="M18.605 2.77797C18.0174 2.27843 17.2713 2.00415 16.5 2.00415C15.7287 2.00415 14.9826 2.27843 14.395 2.77797L4.645 11.065C4.28612 11.37 3.99785 11.7495 3.80014 12.177C3.60244 12.6045 3.50003 13.0699 3.5 13.541V25.756C3.50027 26.6164 3.84227 27.4415 4.45079 28.0499C5.05932 28.6582 5.88455 29 6.745 29H26.255C27.1155 29 27.9407 28.6582 28.5492 28.0499C29.1577 27.4415 29.4997 26.6164 29.5 25.756V13.54C29.5 13.0689 29.3976 12.6035 29.1999 12.176C29.0022 11.7485 28.7139 11.369 28.355 11.064L18.605 2.77797ZM12.5 16.5C12.5 16.8978 12.342 17.2793 12.0607 17.5606C11.7794 17.8419 11.3978 18 11 18C10.6022 18 10.2206 17.8419 9.93934 17.5606C9.65804 17.2793 9.5 16.8978 9.5 16.5C9.5 16.1021 9.65804 15.7206 9.93934 15.4393C10.2206 15.158 10.6022 15 11 15C11.3978 15 11.7794 15.158 12.0607 15.4393C12.342 15.7206 12.5 16.1021 12.5 16.5ZM11 23C10.6022 23 10.2206 22.8419 9.93934 22.5606C9.65804 22.2793 9.5 21.8978 9.5 21.5C9.5 21.1021 9.65804 20.7206 9.93934 20.4393C10.2206 20.158 10.6022 20 11 20C11.3978 20 11.7794 20.158 12.0607 20.4393C12.342 20.7206 12.5 21.1021 12.5 21.5C12.5 21.8978 12.342 22.2793 12.0607 22.5606C11.7794 22.8419 11.3978 23 11 23ZM16.5 23C16.1022 23 15.7206 22.8419 15.4393 22.5606C15.158 22.2793 15 21.8978 15 21.5C15 21.1021 15.158 20.7206 15.4393 20.4393C15.7206 20.158 16.1022 20 16.5 20C16.8978 20 17.2794 20.158 17.5607 20.4393C17.842 20.7206 18 21.1021 18 21.5C18 21.8978 17.842 22.2793 17.5607 22.5606C17.2794 22.8419 16.8978 23 16.5 23ZM16.5 18C16.1022 18 15.7206 17.8419 15.4393 17.5606C15.158 17.2793 15 16.8978 15 16.5C15 16.1021 15.158 15.7206 15.4393 15.4393C15.7206 15.158 16.1022 15 16.5 15C16.8978 15 17.2794 15.158 17.5607 15.4393C17.842 15.7206 18 16.1021 18 16.5C18 16.8978 17.842 17.2793 17.5607 17.5606C17.2794 17.8419 16.8978 18 16.5 18ZM22 18C21.6022 18 21.2206 17.8419 20.9393 17.5606C20.658 17.2793 20.5 16.8978 20.5 16.5C20.5 16.1021 20.658 15.7206 20.9393 15.4393C21.2206 15.158 21.6022 15 22 15C22.3978 15 22.7794 15.158 23.0607 15.4393C23.342 15.7206 23.5 16.1021 23.5 16.5C23.5 16.8978 23.342 17.2793 23.0607 17.5606C22.7794 17.8419 22.3978 18 22 18ZM22 23C21.6022 23 21.2206 22.8419 20.9393 22.5606C20.658 22.2793 20.5 21.8978 20.5 21.5C20.5 21.1021 20.658 20.7206 20.9393 20.4393C21.2206 20.158 21.6022 20 22 20C22.3978 20 22.7794 20.158 23.0607 20.4393C23.342 20.7206 23.5 21.1021 23.5 21.5C23.5 21.8978 23.342 22.2793 23.0607 22.5606C22.7794 22.8419 22.3978 23 22 23Z" fill="#1B3967"/>
</svg>
